<svg width="20" height="20" viewBox="0 0 20 20" fill="none" xmlns="http://www.w3.org/2000/svg">
<path d="M12.0208 18.2164C11.8559 18.2575 11.6877 18.294 11.5208 18.3247C11.0846 18.4059 10.7961 18.8255 10.8768 19.2622C10.9167 19.477 11.0387 19.6559 11.2043 19.7727C11.3751 19.8929 11.5923 19.9472 11.8138 19.906C12.0125 19.8691 12.2128 19.8257 12.4094 19.7766C12.8402 19.6694 13.1027 19.233 12.9952 18.8024C12.888 18.3714 12.4519 18.1091 12.0208 18.2164Z" fill="#1A1B1F"/>
<path d="M17.9658 7.43966C18.0221 7.60939 18.1296 7.74795 18.2654 7.8437C18.4668 7.98553 18.7303 8.03325 18.9817 7.9501C19.4033 7.81012 19.6317 7.35552 19.4923 6.93415C19.4287 6.74207 19.3582 6.54938 19.2831 6.36176C19.1182 5.94946 18.6505 5.74873 18.238 5.91365C17.8259 6.07848 17.6251 6.54628 17.7902 6.9587C17.8533 7.1164 17.9124 7.27826 17.9658 7.43966Z" fill="#1A1B1F"/>
<path d="M14.633 17.0689C14.4912 17.1625 14.3448 17.2532 14.1973 17.3381C13.8126 17.56 13.6808 18.0518 13.9026 18.4364C13.9629 18.541 14.0431 18.6265 14.1355 18.6918C14.3835 18.8663 14.7203 18.8925 15.0008 18.7309C15.1761 18.6298 15.3504 18.5222 15.5194 18.4105C15.8897 18.1658 15.9916 17.667 15.7468 17.2965C15.5021 16.9259 15.0034 16.8241 14.633 17.0689Z" fill="#1A1B1F"/>
<path d="M19.9922 9.68506C19.9747 9.2413 19.6009 8.8959 19.157 8.91322C18.7136 8.93072 18.368 9.30462 18.3854 9.74822C18.3921 9.91782 18.3938 10.09 18.3899 10.2594C18.3836 10.5377 18.5197 10.7857 18.7313 10.9348C18.8573 11.0236 19.0102 11.0773 19.176 11.0811C19.6198 11.0909 19.9876 10.7389 19.9974 10.2949C20.0018 10.0925 20.0002 9.88738 19.9922 9.68506Z" fill="#1A1B1F"/>
<path d="M17.8344 14.9536C17.4785 14.6866 16.9751 14.7591 16.7086 15.1143C16.6065 15.2503 16.499 15.3847 16.389 15.514C16.1013 15.852 16.142 16.3595 16.4799 16.6474C16.4992 16.6637 16.5186 16.6787 16.5388 16.6928C16.8748 16.9296 17.3417 16.8752 17.6133 16.5565C17.7447 16.4021 17.8728 16.2416 17.9948 16.0792C18.2614 15.724 18.1892 15.2202 17.8344 14.9536Z" fill="#1A1B1F"/>
<path d="M19.0175 12.0473C18.5938 11.9144 18.1426 12.1503 18.0098 12.574C17.959 12.7359 17.9027 12.8985 17.8419 13.0578C17.7084 13.4084 17.8363 13.7942 18.1295 14.001C18.1833 14.0388 18.2426 14.0708 18.3069 14.0952C18.7218 14.2535 19.1863 14.0453 19.3444 13.6303C19.4166 13.4409 19.4836 13.2474 19.5442 13.055C19.6768 12.6312 19.4411 12.1801 19.0175 12.0473Z" fill="#1A1B1F"/>
<path d="M8.51241 18.3322C7.79358 18.2031 7.10402 17.9833 6.45016 17.6768C6.44242 17.6728 6.4355 17.6682 6.42737 17.6645C6.27329 17.5919 6.11946 17.5143 5.97036 17.4331C5.96985 17.4325 5.9689 17.4321 5.96808 17.4318C5.69452 17.2811 5.42754 17.1144 5.16817 16.9318C1.38605 14.2676 0.476682 9.02307 3.14108 5.241C3.72045 4.4189 4.42157 3.73304 5.20321 3.18945C5.21284 3.18274 5.22247 3.17608 5.23201 3.16933C7.9864 1.27148 11.7264 1.14358 14.6511 3.09379L14.023 4.0014C13.8483 4.25402 13.9558 4.43812 14.2615 4.4106L16.9901 4.16632C17.2962 4.1388 17.4793 3.87402 17.3969 3.5784L16.6642 0.938418C16.5822 0.642459 16.3722 0.607033 16.1974 0.859613L15.5677 1.76937C13.4214 0.328572 10.8471 -0.220826 8.2919 0.222253C8.03455 0.266793 7.78081 0.321307 7.53055 0.384763C7.52862 0.385107 7.52707 0.385322 7.52552 0.385666C7.51585 0.388031 7.50604 0.391169 7.49663 0.393792C5.29328 0.959613 3.37088 2.24469 1.99912 4.07823C1.98756 4.09194 1.97565 4.10536 1.96473 4.12028C1.91912 4.18171 1.87384 4.24457 1.82952 4.30742C1.75703 4.41043 1.68558 4.51602 1.61722 4.62161C1.60867 4.63433 1.60213 4.64727 1.59465 4.66013C0.462666 6.41426 -0.0833353 8.4422 0.0103018 10.5068C0.0105168 10.5136 0.0101299 10.5204 0.0103018 10.5274C0.0193732 10.729 0.0353663 10.9335 0.0570774 11.1348C0.0582382 11.1478 0.0611187 11.1601 0.0633113 11.1731C0.0857533 11.3755 0.113913 11.5784 0.14921 11.7812C0.507937 13.8508 1.48421 15.7131 2.9471 17.1621C2.9505 17.1655 2.95402 17.1692 2.95746 17.1727C2.95867 17.1741 2.96 17.1747 2.96116 17.176C3.3542 17.5637 3.78171 17.9222 4.24203 18.2464C5.44667 19.0953 6.78807 19.6563 8.22866 19.9149C8.66576 19.9934 9.0833 19.7024 9.16172 19.2655C9.2401 18.8284 8.94938 18.4105 8.51241 18.3322Z" fill="#1A1B1F"/>
<path d="M9.50624 3.57666C9.1467 3.57666 8.85547 3.86815 8.85547 4.22718V10.7081L14.7828 13.7722C14.8782 13.8216 14.9803 13.8449 15.0809 13.8449C15.3163 13.8449 15.5437 13.7167 15.6593 13.493C15.8242 13.1737 15.6994 12.7815 15.3801 12.6166L10.1563 9.91596V4.22718C10.1562 3.86815 9.86535 3.57666 9.50624 3.57666Z" fill="#1A1B1F"/>
</svg>
