<svg width="24" height="23" viewBox="0 0 24 23" fill="none" xmlns="http://www.w3.org/2000/svg">
<path fill-rule="evenodd" clip-rule="evenodd" d="M11.7503 19.1665C15.9845 19.1665 19.417 15.734 19.417 11.4998C19.417 7.26565 15.9845 3.83317 11.7503 3.83317C7.51614 3.83317 4.08366 7.26565 4.08366 11.4998C4.08366 15.734 7.51614 19.1665 11.7503 19.1665ZM11.7503 21.0832C17.0431 21.0832 21.3337 16.7926 21.3337 11.4998C21.3337 6.20711 17.0431 1.9165 11.7503 1.9165C6.4576 1.9165 2.16699 6.20711 2.16699 11.4998C2.16699 16.7926 6.4576 21.0832 11.7503 21.0832Z" fill="#B3B6AF"/>
<path d="M11.7503 9.5835C11.7503 9.05422 12.1794 8.62516 12.7087 8.62516H13.667C14.1963 8.62516 14.6253 8.1961 14.6253 7.66683C14.6253 7.13756 14.1963 6.7085 13.667 6.7085H12.7087C11.1208 6.7085 9.83366 7.99568 9.83366 9.5835V11.5002H8.87533C8.34605 11.5002 7.91699 11.9292 7.91699 12.4585C7.91699 12.9878 8.34605 13.4168 8.87533 13.4168H9.83366V19.1668C9.83366 19.6961 10.2627 20.1252 10.792 20.1252C11.3213 20.1252 11.7503 19.6961 11.7503 19.1668V13.4168H13.667C14.1963 13.4168 14.6253 12.9878 14.6253 12.4585C14.6253 11.9292 14.1963 11.5002 13.667 11.5002H11.7503V9.5835Z" fill="#B3B6AF"/>
</svg>
