<svg width="20" height="20" viewBox="0 0 20 20" fill="none" xmlns="http://www.w3.org/2000/svg">
<g clip-path="url(#clip0)">
<path d="M10.3574 19.988C11.8868 19.7707 13.2276 18.1744 14.0712 15.8171C12.8516 15.5439 11.6071 15.3973 10.3574 15.3799V19.988Z" fill="#0E344A"/>
<path d="M12.8004 19.6133C12.8908 19.5871 12.9809 19.5608 13.0702 19.5318C13.1456 19.5076 13.22 19.4814 13.2943 19.4554C13.3823 19.425 13.4699 19.3938 13.5572 19.3606C13.6315 19.3323 13.7052 19.3023 13.779 19.2723C13.8642 19.2365 13.9492 19.2009 14.0333 19.1651C14.1068 19.1328 14.1797 19.099 14.2527 19.065C14.3352 19.026 14.4174 18.9864 14.4989 18.9452C14.5705 18.9088 14.6419 18.8716 14.7134 18.8334C14.7935 18.7904 14.8731 18.7466 14.9522 18.7016C15.0237 18.6611 15.0927 18.6204 15.1623 18.5785C15.2398 18.5309 15.3169 18.4832 15.3936 18.4356C15.4622 18.392 15.5306 18.3476 15.5981 18.3019C15.6735 18.2511 15.7479 18.1982 15.8219 18.1454C15.8884 18.0977 15.9545 18.0502 16.0194 18.0024C16.091 17.9473 16.1643 17.8902 16.236 17.833C16.2997 17.7822 16.3632 17.7317 16.4259 17.6795C16.4973 17.6202 16.5657 17.5588 16.635 17.4973C16.6957 17.4434 16.7568 17.39 16.8161 17.3347C16.8844 17.271 16.9509 17.205 17.0174 17.1395C17.075 17.0826 17.1333 17.0266 17.1896 16.9683C17.2001 16.9575 17.2101 16.9458 17.2209 16.9346C16.4413 16.532 15.6201 16.2159 14.7717 15.9922C14.3305 17.3992 13.5453 18.6744 12.4873 19.7016C12.5163 19.6941 12.5452 19.688 12.5742 19.6805C12.6507 19.6591 12.7257 19.6355 12.8004 19.6133Z" fill="#0E344A"/>
<path d="M19.9996 10.3657H15.7139C15.6976 12.0391 15.4549 13.7025 14.9922 15.3108C15.9357 15.5628 16.8462 15.9252 17.7049 16.3903C19.1147 14.6911 19.9218 12.5725 19.9996 10.3657Z" fill="#0E344A"/>
<path d="M10.3574 9.65104H14.9994C14.9812 8.03681 14.7444 6.43253 14.2957 4.88184C13.0031 5.17662 11.683 5.33404 10.3574 5.3515V9.65104Z" fill="#0E344A"/>
<path d="M10.3574 0.0283203V4.63642C11.6071 4.6188 12.8516 4.47236 14.0712 4.19923C13.2276 1.84186 11.8868 0.24561 10.3574 0.0283203Z" fill="#0E344A"/>
<path d="M10.3574 14.6653C11.683 14.6829 13.0031 14.8403 14.2957 15.1351C14.7444 13.5844 14.9812 11.9799 14.9994 10.3657H10.3574V14.6653Z" fill="#0E344A"/>
<path d="M17.7049 3.62646C16.8462 4.09159 15.9357 4.45391 14.9922 4.70593C15.4549 6.31422 15.6976 7.97766 15.7139 9.65105H19.9996C19.9216 7.44447 19.1146 5.32586 17.7049 3.62646Z" fill="#0E344A"/>
<path d="M17.2227 3.0835C17.2123 3.07285 17.2023 3.06134 17.192 3.05034C17.1355 2.99205 17.0768 2.93585 17.0192 2.87913C16.9529 2.81368 16.8868 2.74753 16.8183 2.684C16.7592 2.62885 16.6979 2.57667 16.6372 2.52169C16.5679 2.46026 16.4986 2.3983 16.4274 2.33896C16.3656 2.28677 16.3023 2.23686 16.2394 2.18677C16.1679 2.12882 16.0946 2.07123 16.0209 2.0159C15.9563 1.96721 15.8909 1.92009 15.8251 1.87296C15.7504 1.81921 15.6753 1.76563 15.5993 1.71449C15.5324 1.66946 15.4645 1.62548 15.3966 1.58237C15.3193 1.53263 15.2422 1.48394 15.1635 1.43682C15.0945 1.39545 15.0249 1.35461 14.9551 1.31499C14.8751 1.26927 14.795 1.22494 14.7142 1.18165C14.6427 1.14587 14.5713 1.10695 14.4997 1.07118C14.4175 1.02964 14.3346 0.989671 14.2496 0.950401C14.1781 0.916368 14.1054 0.883208 14.0318 0.85092C13.9471 0.813396 13.8616 0.779537 13.7763 0.743758C13.7026 0.713739 13.6293 0.684069 13.555 0.655796C13.4682 0.622635 13.3803 0.591569 13.2923 0.561201C13.218 0.535021 13.1436 0.509016 13.0682 0.484582C12.9789 0.45561 12.8895 0.429256 12.7977 0.402728C12.7233 0.380912 12.6486 0.358746 12.5734 0.33885C12.5446 0.330996 12.5153 0.324888 12.4863 0.317383C13.5443 1.34466 14.3294 2.6196 14.7708 4.02683C15.62 3.80309 16.4424 3.48684 17.2227 3.0835Z" fill="#0E344A"/>
<path d="M0 9.65105H4.28575C4.30198 7.97766 4.54475 6.31422 5.00725 4.70593C4.06392 4.45408 3.1534 4.09176 2.29471 3.62646C0.884865 5.32568 0.0778402 7.44447 0 9.65105Z" fill="#0E344A"/>
<path d="M9.64252 19.988V15.3799C8.39289 15.3975 7.14832 15.5439 5.92871 15.8171C6.77221 18.1744 8.11312 19.7707 9.64252 19.988Z" fill="#0E344A"/>
<path d="M9.64293 10.3657H5.00098C5.01913 11.9799 5.25579 13.5844 5.70468 15.1351C6.99724 14.8401 8.31721 14.6827 9.64293 14.6653V10.3657Z" fill="#0E344A"/>
<path d="M9.64252 0.0283203C8.11312 0.24561 6.77221 1.84186 5.92871 4.19923C7.14832 4.47254 8.39289 4.61897 9.64252 4.63642V0.0283203Z" fill="#0E344A"/>
<path d="M9.64293 5.3515C8.31738 5.33404 6.99724 5.17662 5.70468 4.88184C5.25579 6.43253 5.01913 8.03681 5.00098 9.65104H9.64293V5.3515Z" fill="#0E344A"/>
<path d="M7.51087 0.317383C7.4819 0.324888 7.45293 0.330996 7.42396 0.338501C7.34821 0.358746 7.27351 0.381261 7.19812 0.403077C7.10841 0.429256 7.0194 0.45561 6.92934 0.484233C6.85342 0.508842 6.77872 0.535021 6.70402 0.561026C6.61658 0.591918 6.52897 0.622635 6.4424 0.655447C6.3677 0.684069 6.29405 0.713739 6.22005 0.744108C6.13506 0.779886 6.04988 0.815665 5.96594 0.851269C5.89228 0.883557 5.8195 0.917415 5.74655 0.951449C5.664 0.990369 5.5818 1.02999 5.50029 1.07118C5.42873 1.10765 5.35718 1.145 5.28579 1.18305C5.20568 1.22598 5.12627 1.26997 5.04738 1.31499C4.97583 1.35496 4.90549 1.39598 4.83655 1.43786C4.75889 1.48464 4.68209 1.53298 4.60565 1.5808C4.53688 1.62478 4.46864 1.66911 4.4011 1.71484C4.3257 1.76563 4.25135 1.81851 4.17735 1.87139C4.11086 1.91904 4.04471 1.96651 3.97961 2.01451C3.90648 2.06948 3.83667 2.12673 3.76302 2.1838C3.69949 2.23459 3.63544 2.28503 3.5733 2.33756C3.50175 2.39655 3.43385 2.45764 3.36492 2.51872C3.30383 2.57318 3.24222 2.62606 3.18253 2.68243C3.11464 2.74579 3.04849 2.81158 2.98217 2.87686C2.92458 2.93376 2.86593 2.98995 2.80939 3.04842C2.79909 3.05924 2.78914 3.07111 2.77832 3.08211C3.55777 3.48492 4.37911 3.80099 5.2275 4.02474C5.66871 2.61838 6.4534 1.34414 7.51087 0.317383Z" fill="#0E344A"/>
<path d="M2.98081 17.1372C3.0473 17.2027 3.11345 17.2688 3.18169 17.3325C3.24103 17.3875 3.30212 17.4397 3.36303 17.4947C3.43232 17.5563 3.5016 17.6181 3.57281 17.6774C3.6346 17.7292 3.6976 17.7793 3.76078 17.8296C3.83234 17.8875 3.90372 17.9451 3.97947 18.0008C4.04387 18.0492 4.10932 18.0959 4.17476 18.1439C4.24946 18.1975 4.32486 18.2511 4.40095 18.3026C4.4678 18.3476 4.53569 18.3916 4.60358 18.4349C4.6809 18.4844 4.75804 18.5331 4.83675 18.5802C4.90569 18.6218 4.97533 18.6625 5.04514 18.7022C5.12508 18.748 5.20519 18.7923 5.28599 18.8354C5.35738 18.8712 5.42893 18.9101 5.50049 18.9459C5.58269 18.9874 5.6656 19.0274 5.75059 19.0668C5.82215 19.1005 5.89475 19.1337 5.9684 19.1661C6.05305 19.2037 6.1384 19.2375 6.22392 19.2733C6.29757 19.3033 6.37087 19.333 6.44522 19.3613C6.53196 19.3946 6.61992 19.4257 6.70789 19.456C6.78223 19.482 6.85658 19.5082 6.93198 19.5325C7.02134 19.5615 7.1107 19.588 7.2025 19.6143C7.27685 19.6361 7.35155 19.6583 7.4266 19.6784C7.45557 19.6862 7.48489 19.6923 7.51386 19.6999C6.45586 18.6724 5.67083 17.3975 5.22945 15.9902C4.38106 16.2142 3.55972 16.5302 2.78027 16.9332C2.79075 16.9439 2.80069 16.9554 2.81117 16.9664C2.86475 17.0243 2.92251 17.0805 2.98081 17.1372Z" fill="#0E344A"/>
<path d="M2.29471 16.3903C3.1534 15.9252 4.06392 15.5628 5.00725 15.3108C4.54475 13.7025 4.30198 12.0391 4.28575 10.3657H0C0.0780147 12.5723 0.884865 14.6909 2.29471 16.3903Z" fill="#0E344A"/>
</g>
<defs>
<clipPath id="clip0">
<rect width="20" height="20" fill="white"/>
</clipPath>
</defs>
</svg>
