<svg width="24" height="23" viewBox="0 0 24 23" fill="none" xmlns="http://www.w3.org/2000/svg">
<path fill-rule="evenodd" clip-rule="evenodd" d="M15.8337 3.83317H8.16699C6.0499 3.83317 4.33366 5.54941 4.33366 7.6665V15.3332C4.33366 17.4503 6.0499 19.1665 8.16699 19.1665H15.8337C17.9508 19.1665 19.667 17.4503 19.667 15.3332V7.6665C19.667 5.54941 17.9508 3.83317 15.8337 3.83317ZM8.16699 1.9165C4.99136 1.9165 2.41699 4.49087 2.41699 7.6665V15.3332C2.41699 18.5088 4.99136 21.0832 8.16699 21.0832H15.8337C19.0093 21.0832 21.5837 18.5088 21.5837 15.3332V7.6665C21.5837 4.49087 19.0093 1.9165 15.8337 1.9165H8.16699Z" fill="#B3B6AF"/>
<path d="M16.7913 7.66667C17.3206 7.66667 17.7497 7.23761 17.7497 6.70833C17.7497 6.17906 17.3206 5.75 16.7913 5.75C16.2621 5.75 15.833 6.17906 15.833 6.70833C15.833 7.23761 16.2621 7.66667 16.7913 7.66667Z" fill="#B3B6AF"/>
<path fill-rule="evenodd" clip-rule="evenodd" d="M16.7913 11.5C16.7913 14.1464 14.646 16.2917 11.9997 16.2917C9.35331 16.2917 7.20801 14.1464 7.20801 11.5C7.20801 8.85364 9.35331 6.70833 11.9997 6.70833C14.646 6.70833 16.7913 8.85364 16.7913 11.5ZM14.8747 11.5C14.8747 13.0878 13.5875 14.375 11.9997 14.375C10.4119 14.375 9.12467 13.0878 9.12467 11.5C9.12467 9.91218 10.4119 8.625 11.9997 8.625C13.5875 8.625 14.8747 9.91218 14.8747 11.5Z" fill="#B3B6AF"/>
</svg>
