<svg width="22" height="22" viewBox="0 0 22 22" fill="none" xmlns="http://www.w3.org/2000/svg">
<path d="M19.39 15.2345C22.8705 11.7539 22.8705 6.09053 19.39 2.60995C15.9094 -0.870633 10.2462 -0.870633 6.76564 2.60995C3.81284 5.56275 3.36564 9.95431 5.42283 13.3837C5.42283 13.3837 5.5706 13.6316 5.37103 13.831C4.23247 14.9695 0.816598 18.3854 0.816598 18.3854C-0.0899217 19.2919 -0.305726 20.5594 0.498172 21.3635L0.636584 21.5017C1.44048 22.3058 2.70809 22.09 3.61454 21.1835C3.61454 21.1835 7.02319 17.7748 8.1594 16.6386C8.36855 16.4295 8.61639 16.5773 8.61639 16.5773C12.0457 18.6344 16.4372 18.1873 19.39 15.2345ZM8.41369 13.5863C5.8419 11.0146 5.84197 6.83 8.41376 4.25821C10.9856 1.68649 15.1701 1.68642 17.7418 4.25821C20.3136 6.82993 20.3136 11.0146 17.7418 13.5863C15.17 16.158 10.9856 16.158 8.41369 13.5863Z" fill="#0E344A"/>
<path d="M8.9832 8.39311C8.8635 8.39311 8.74181 8.36958 8.62452 8.32004C8.15599 8.12174 7.93678 7.58113 8.13508 7.11253C9.38143 4.16717 12.7916 2.78496 15.7369 4.03131C16.2054 4.22961 16.4246 4.77022 16.2263 5.23882C16.0279 5.70742 15.4875 5.92649 15.0187 5.72826C13.0092 4.87794 10.6824 5.82103 9.8321 7.83053C9.68335 8.18198 9.34217 8.39311 8.9832 8.39311Z" fill="#0E344A"/>
</svg>
