<svg width="20" height="20" viewBox="0 0 20 20" fill="none" xmlns="http://www.w3.org/2000/svg">
<path d="M13.5441 6.45511C12.6446 5.55564 11.3748 4.97363 9.99911 4.97363C8.62345 4.97363 7.35361 5.52919 6.45414 6.45511C5.55467 7.35459 4.97266 8.62443 4.97266 10.0001C4.97266 11.3757 5.55467 12.6456 6.45414 13.5451C7.35361 14.4445 8.62345 15.0265 9.99911 15.0265C11.3748 15.0265 12.6446 14.471 13.5441 13.5451C14.4436 12.6456 15.0256 11.3757 15.0256 10.0001C15.0256 8.62443 14.47 7.35459 13.5441 6.45511ZM12.5917 12.5927C11.9303 13.2541 11.0044 13.6509 9.99911 13.6509C8.99382 13.6509 8.06789 13.2541 7.40652 12.5927C6.74514 11.9313 6.34832 11.0054 6.34832 10.0001C6.34832 8.9948 6.74514 8.06887 7.40652 7.4075C8.06789 6.74612 8.99382 6.34929 9.99911 6.34929C11.0044 6.34929 11.9303 6.74612 12.5917 7.4075C13.2531 8.06887 13.6499 8.9948 13.6499 10.0001C13.6499 11.0054 13.2531 11.9313 12.5917 12.5927Z" fill="#1A1B1F"/>
<path d="M19.3128 9.3125H17.2757C16.9054 9.3125 16.5879 9.62996 16.5879 10.0003C16.5879 10.3707 16.9054 10.6882 17.2757 10.6882H19.3128C19.6831 10.6882 20.0006 10.3707 20.0006 10.0003C20.0006 9.62996 19.6831 9.3125 19.3128 9.3125Z" fill="#1A1B1F"/>
<path d="M10.0003 16.5879C9.62996 16.5879 9.3125 16.9054 9.3125 17.2757V19.3128C9.3125 19.6831 9.62996 20.0006 10.0003 20.0006C10.3707 20.0006 10.6882 19.6831 10.6882 19.3128V17.2757C10.6882 16.9054 10.3707 16.5879 10.0003 16.5879Z" fill="#1A1B1F"/>
<path d="M17.0629 16.1114L15.6078 14.6564C15.3697 14.3919 14.92 14.3919 14.6554 14.6564C14.3909 14.921 14.3909 15.3443 14.6554 15.6088L16.1105 17.0638C16.375 17.3284 16.7983 17.3284 17.0629 17.0638C17.3274 16.7993 17.3274 16.376 17.0629 16.1114Z" fill="#1A1B1F"/>
<path d="M10.0003 0C9.62996 0 9.3125 0.31746 9.3125 0.68783V2.72486C9.3125 3.09523 9.62996 3.41269 10.0003 3.41269C10.3707 3.41269 10.6882 3.09523 10.6882 2.72486V0.68783C10.6882 0.31746 10.3707 0 10.0003 0Z" fill="#1A1B1F"/>
<path d="M17.0902 2.93572C16.8256 2.67117 16.4024 2.67117 16.1378 2.93572L14.6828 4.39074C14.4182 4.65529 14.4182 5.07857 14.6828 5.34312C14.9209 5.60768 15.3706 5.60768 15.6352 5.34312L17.0902 3.8881C17.3547 3.62355 17.3547 3.20027 17.0902 2.93572Z" fill="#1A1B1F"/>
<path d="M2.72486 9.3125H0.68783C0.31746 9.3125 0 9.62996 0 10.0003C0 10.3707 0.291005 10.6882 0.68783 10.6882H2.72486C3.09523 10.6882 3.41269 10.3707 3.41269 10.0003C3.41269 9.62996 3.09523 9.3125 2.72486 9.3125Z" fill="#1A1B1F"/>
<path d="M5.31676 14.6564C5.07866 14.3919 4.62893 14.3919 4.36438 14.6564L2.90935 16.1114C2.6448 16.376 2.6448 16.7993 2.90935 17.0638C3.1739 17.3284 3.59718 17.3284 3.86173 17.0638L5.31676 15.6088C5.58131 15.3443 5.58131 14.921 5.31676 14.6564Z" fill="#1A1B1F"/>
<path d="M5.31676 4.39074L3.86173 2.93572C3.59718 2.67117 3.1739 2.67117 2.90935 2.93572C2.6448 3.20027 2.6448 3.62355 2.90935 3.8881L4.36438 5.34312C4.62893 5.60768 5.05221 5.60768 5.31676 5.34312C5.58131 5.07857 5.58131 4.65529 5.31676 4.39074Z" fill="#1A1B1F"/>
</svg>
