<svg width="23" height="23" viewBox="0 0 23 23" fill="none" xmlns="http://www.w3.org/2000/svg">
<path fill-rule="evenodd" clip-rule="evenodd" d="M3.04853 13.4165C1.46372 13.421 0.440682 15.2264 1.41703 16.5942C2.81525 18.5529 5.35077 20.125 9.58374 20.125C16.1436 20.125 21.4093 14.7791 20.6722 8.46313L21.7521 6.30324C22.501 4.80535 21.1996 3.10138 19.5574 3.42981L18.1306 3.71516C17.7524 3.51558 17.3609 3.36497 17.0264 3.25585C16.3743 3.04321 15.5851 2.875 14.8546 2.875C13.5423 2.875 12.4097 3.21167 11.5097 3.88693C10.6199 4.55461 10.1187 5.43207 9.84363 6.23784C9.71683 6.60925 9.63241 6.98178 9.57825 7.33933C9.06912 7.1791 8.54998 6.9635 8.04173 6.70023C6.88867 6.10297 5.95626 5.3458 5.43028 4.68195C4.54782 3.56816 2.67769 3.65074 2.02144 5.09854C1.09651 7.13908 1.35023 9.5579 2.18162 11.5123C2.46029 12.1674 2.82278 12.8149 3.26563 13.415C3.18983 13.4159 3.1173 13.4163 3.04853 13.4165ZM9.58365 18.2083C5.88128 18.2083 3.96685 16.8674 2.97693 15.4806C2.93246 15.4183 2.97731 15.3334 3.05385 15.3332C4.0609 15.3303 6.12804 15.2827 7.49136 14.4847C7.56186 14.4434 7.54635 14.3395 7.46892 14.3134C4.29091 13.2449 2.48443 8.71948 3.76705 5.88982C3.79646 5.82494 3.88367 5.81638 3.92791 5.87222C5.39308 7.72146 8.5966 9.53274 11.3838 9.58229C11.4442 9.58337 11.49 9.52842 11.4808 9.46865C11.3684 8.74051 10.9396 4.79167 14.8545 4.79167C15.7894 4.79167 17.1803 5.24767 17.6926 5.71483C17.7163 5.73642 17.7484 5.74623 17.7798 5.73994L19.9332 5.30926C20.0114 5.29362 20.0734 5.37476 20.0377 5.44609L18.7021 8.11726C18.6928 8.13581 18.6899 8.1571 18.6935 8.17751C19.6289 13.4358 15.3221 18.2083 9.58365 18.2083Z" fill="#B3B6AF"/>
</svg>
